<svg width="128" height="128" viewBox="0 0 128 128" fill="none" xmlns="http://www.w3.org/2000/svg">
<rect width="128" height="128" rx="24" fill="url(#paint0_linear_7_8)"/>
<path d="M61.7957 38.0599C68.9626 38.5456 75.296 41.1446 80.9336 45.9225C82.1675 46.966 84.0577 48.8299 85.239 50.1622C86.02 51.0351 86.8207 52.013 87.9561 53.4634C89.8988 55.9377 91.2442 57.1125 92.7734 57.6704C93.0819 57.7754 94.0007 58.0182 94.8277 58.202C97.0591 58.6942 97.9845 58.9961 99.4087 59.6721C100.912 60.394 101.824 61.0372 102.802 62.0611C104.41 63.7543 105.388 66.0842 105.768 69.1623C106.011 71.1181 106.077 73.763 105.9 74.9247C105.499 77.6352 103.826 79.847 101.154 81.1859L100.531 81.5009H99.3431C98.6868 81.5009 98.1355 81.4878 98.1158 81.4681C98.0961 81.4484 98.1026 81.2974 98.1355 81.1399C98.2798 80.3655 98.3323 79.1119 98.2667 78.1997C98.1026 76.1389 97.722 74.7212 96.8491 72.9361C96.0943 71.3806 95.2608 70.2387 94.0204 69.031C91.8546 66.9309 89.2622 65.6445 86.2497 65.1785C85.2128 65.021 83.1454 65.021 82.1478 65.1785C77.8818 65.8742 74.4165 68.1713 72.1654 71.8072C70.5902 74.3406 69.8552 77.6418 70.203 80.5492C70.2555 80.9824 70.3015 81.3762 70.3015 81.4156C70.3015 81.4812 68.6147 81.5009 62.0976 81.5009C57.5822 81.5009 53.8938 81.4943 53.8938 81.4812C53.8938 81.4746 53.9397 81.1399 53.9922 80.7461C54.1038 79.9061 54.1169 78.4425 54.025 77.5959C53.5984 73.7893 51.6492 70.3108 48.6236 67.9678C44.397 64.6994 38.6674 64.1153 33.8436 66.4649C29.5448 68.5585 26.6308 72.621 26.027 77.3661C25.9417 78.0684 25.9285 78.5081 25.9613 79.4991C25.9876 80.1817 26.0204 80.8643 26.0467 81.0087L26.086 81.2712L25.7316 80.9693C25.5347 80.8052 25.1541 80.4114 24.8784 80.103C22.7389 77.6943 21.7282 74.3078 22.0629 70.7046C22.2532 68.7095 22.8636 66.9243 23.8808 65.3951C24.3665 64.6666 25.3378 63.6165 25.9023 63.2162C26.2501 62.9733 26.2632 62.9471 26.237 62.7108C26.132 61.7854 26.5914 59.5868 27.4183 57.06C27.9106 55.5505 28.0878 55.1239 28.7178 53.9032C30.0829 51.2386 32.1109 48.4821 35.1431 45.1546C36.331 43.8485 37.2433 43.1988 39.3106 42.1618C43.977 39.8254 50.0478 38.4274 57.1753 38.0533C58.6258 37.9812 60.6406 37.9812 61.7957 38.0599ZM60.6866 43.5204C59.3411 43.901 58.1926 44.8593 57.6019 46.0865C57.1622 47.0119 57.1556 47.071 57.1294 49.9325C57.0966 52.7153 57.1753 54.6579 57.3394 55.4455C57.5428 56.4299 58.0154 57.1453 58.6192 57.4078L58.9408 57.5457L69.1989 57.5325L79.4569 57.5129L79.831 57.3619C80.238 57.1978 80.8155 56.7187 80.973 56.4168C81.1633 56.0493 81.2093 55.5636 81.0977 55.0386C80.9008 54.1001 80.2773 53.0237 79.0697 51.547C75.1188 46.7232 71.6535 44.3145 67.6697 43.6254C66.3833 43.4088 65.9305 43.3826 63.443 43.3957C61.4544 43.4088 61.0147 43.4285 60.6866 43.5204ZM46.9041 44.1833C45.7293 44.472 44.0032 45.0627 43.3404 45.3974C42.1656 45.9881 40.7151 47.117 39.7766 48.167C37.7027 50.4969 36.18 53.5488 36.1669 55.4127C36.1604 56.0493 36.2457 56.3906 36.4951 56.7384C36.751 57.0863 37.0201 57.2766 37.4992 57.421C37.8733 57.5391 38.2212 57.5457 43.9704 57.5457C49.9494 57.5457 50.0478 57.5457 50.3235 57.4144C50.6582 57.2503 50.901 56.9091 51.0913 56.3512C51.2292 55.9443 51.2292 55.8327 51.2554 51.3829C51.2751 46.5394 51.2423 45.5549 51.006 44.9314C50.8223 44.4392 50.4744 44.1176 50.0413 44.052C49.8706 44.0257 49.6672 43.9798 49.595 43.9535C49.5228 43.9207 49.0962 43.9076 48.6433 43.9207C48.0001 43.947 47.626 43.9995 46.9041 44.1833Z" fill="white"/>
<path d="M85.344 67.3968C89.9645 67.8431 93.9089 70.9868 95.3724 75.3841C95.7925 76.6508 95.904 77.294 95.9434 78.7444C96.0025 80.884 95.6875 82.3935 94.8146 84.2311C93.3313 87.3223 90.4304 89.685 87.0964 90.5185C81.0781 92.0281 74.9547 88.6612 73.0252 82.7807C72.382 80.838 72.2638 78.7575 72.6708 76.7492C73.8521 70.8884 79.3717 66.8193 85.344 67.3968ZM82.7057 73.7565C82.4366 73.8352 81.9641 74.0255 81.6556 74.1831C80.553 74.7606 79.7654 75.5679 79.2273 76.677C78.84 77.4843 78.7022 77.9896 78.6563 78.8428C78.5053 81.619 80.5071 84.113 83.2767 84.5921C83.5261 84.638 84.0446 84.6577 84.504 84.638C85.1931 84.6118 85.39 84.5724 85.9675 84.3755C87.4311 83.8767 88.4812 82.9644 89.1703 81.5993C89.5969 80.7461 89.7413 80.1423 89.7479 79.1382C89.761 77.6943 89.3541 76.5983 88.3893 75.4366C87.6739 74.59 86.3416 73.8352 85.1865 73.6252C84.6024 73.5268 83.2701 73.5924 82.7057 73.7565Z" fill="white"/>
<path d="M41.1614 67.3903C47.3832 68.04 52.0298 73.3692 51.7739 79.5648C51.4982 86.0885 46.0377 91.1355 39.5534 90.8664C37.0398 90.7614 34.6967 89.9016 32.7278 88.3659C32.019 87.8014 30.923 86.6529 30.3848 85.8981C27.9237 82.4197 27.5496 77.8387 29.4135 73.9862C31.0805 70.5405 34.3751 68.0925 38.1424 67.4887C38.9299 67.364 40.4329 67.3181 41.1614 67.3903ZM39.0874 73.6318C37.276 73.9468 35.7206 75.1413 34.9593 76.8017C34.572 77.6352 34.4473 78.2981 34.4867 79.3351C34.5064 80.0045 34.5524 80.3327 34.6639 80.6805C35.0118 81.77 35.6878 82.7741 36.5147 83.437C37.0266 83.8439 37.9651 84.323 38.569 84.4936C39.1596 84.6577 40.4919 84.6905 41.1154 84.5593C43.2944 84.113 45.0205 82.3738 45.4602 80.1948C45.6111 79.4729 45.5652 78.2587 45.3683 77.6024C44.7645 75.581 43.1303 74.0649 41.0957 73.658C40.5641 73.553 39.6059 73.5399 39.0874 73.6318Z" fill="white"/>
<defs>
<linearGradient id="paint0_linear_7_8" x1="128" y1="-3.33335e-05" x2="-45.7145" y2="28.2311" gradientUnits="userSpaceOnUse">
<stop stop-color="#39ADEB"/>
<stop offset="1" stop-color="#5800C9"/>
</linearGradient>
</defs>
</svg>
